<svg width="1600" height="720" viewBox="0 0 1600 720" fill="none" xmlns="http://www.w3.org/2000/svg">
  <defs>
    <linearGradient id="bg" x1="90" y1="60" x2="1510" y2="660" gradientUnits="userSpaceOnUse">
      <stop stop-color="#F5F0E8"/>
      <stop offset="0.5" stop-color="#E8EEF7"/>
      <stop offset="1" stop-color="#D9E8DE"/>
    </linearGradient>
    <linearGradient id="panel" x1="0" y1="0" x2="1" y2="1">
      <stop stop-color="#FFFFFF" stop-opacity="0.96"/>
      <stop offset="1" stop-color="#F4F6FB" stop-opacity="0.94"/>
    </linearGradient>
    <linearGradient id="accent" x1="0" y1="0" x2="1" y2="1">
      <stop stop-color="#0F766E"/>
      <stop offset="1" stop-color="#2563EB"/>
    </linearGradient>
    <filter id="shadow" x="0" y="0" width="1600" height="720" filterUnits="userSpaceOnUse" color-interpolation-filters="sRGB">
      <feDropShadow dx="0" dy="18" stdDeviation="30" flood-color="#0F172A" flood-opacity="0.14"/>
    </filter>
  </defs>

  <rect width="1600" height="720" rx="40" fill="url(#bg)"/>
  <circle cx="1320" cy="140" r="120" fill="#FFFFFF" fill-opacity="0.34"/>
  <circle cx="260" cy="600" r="160" fill="#FFFFFF" fill-opacity="0.24"/>
  <circle cx="1470" cy="530" r="90" fill="#FFFFFF" fill-opacity="0.18"/>

  <g filter="url(#shadow)">
    <rect x="90" y="92" width="760" height="536" rx="28" fill="url(#panel)"/>
    <rect x="920" y="148" width="260" height="432" rx="34" fill="url(#panel)"/>
    <rect x="1228" y="174" width="282" height="378" rx="24" fill="url(#panel)"/>
  </g>

  <rect x="132" y="130" width="676" height="54" rx="16" fill="#E8EEF6"/>
  <rect x="132" y="216" width="280" height="28" rx="14" fill="#D7E5DF"/>
  <rect x="132" y="262" width="618" height="18" rx="9" fill="#E7EBF5"/>
  <rect x="132" y="298" width="582" height="18" rx="9" fill="#E7EBF5"/>
  <rect x="132" y="334" width="520" height="18" rx="9" fill="#E7EBF5"/>

  <rect x="132" y="408" width="304" height="156" rx="24" fill="#F4F8F5"/>
  <rect x="462" y="408" width="346" height="156" rx="24" fill="#F5F7FC"/>
  <rect x="160" y="436" width="144" height="18" rx="9" fill="#B8D7C2"/>
  <rect x="160" y="470" width="208" height="14" rx="7" fill="#CFE0D4"/>
  <rect x="160" y="500" width="176" height="14" rx="7" fill="#CFE0D4"/>

  <rect x="492" y="438" width="112" height="32" rx="16" fill="#FFFFFF"/>
  <rect x="620" y="438" width="112" height="32" rx="16" fill="url(#accent)"/>
  <rect x="492" y="490" width="112" height="32" rx="16" fill="#FFFFFF"/>
  <rect x="620" y="490" width="112" height="32" rx="16" fill="#FFFFFF"/>

  <rect x="965" y="188" width="170" height="18" rx="9" fill="#DCE6F7"/>
  <rect x="965" y="228" width="118" height="18" rx="9" fill="#C7DDD4"/>
  <rect x="965" y="290" width="170" height="198" rx="28" fill="#EEF3FB"/>
  <rect x="991" y="320" width="118" height="16" rx="8" fill="#D2DDF0"/>
  <rect x="991" y="352" width="92" height="16" rx="8" fill="#D2DDF0"/>
  <rect x="991" y="402" width="118" height="54" rx="18" fill="#FFFFFF"/>

  <rect x="1260" y="206" width="218" height="22" rx="11" fill="#D7E6DE"/>
  <rect x="1260" y="248" width="152" height="18" rx="9" fill="#E0E7F4"/>
  <rect x="1260" y="308" width="218" height="176" rx="26" fill="#EEF4F0"/>
  <rect x="1290" y="338" width="160" height="16" rx="8" fill="#D3E2DA"/>
  <rect x="1290" y="372" width="124" height="16" rx="8" fill="#D3E2DA"/>
  <rect x="1290" y="422" width="148" height="34" rx="17" fill="url(#accent)"/>

  <path d="M842 312C900 312 900 244 958 244" stroke="url(#accent)" stroke-width="18" stroke-linecap="round"/>
  <path d="M944 220L972 244L944 268" stroke="url(#accent)" stroke-width="18" stroke-linecap="round" stroke-linejoin="round"/>
  <path d="M1184 404C1224 404 1224 394 1252 394" stroke="url(#accent)" stroke-width="18" stroke-linecap="round"/>
  <path d="M1236 370L1264 394L1236 418" stroke="url(#accent)" stroke-width="18" stroke-linecap="round" stroke-linejoin="round"/>

  <text x="132" y="86" fill="#0F172A" font-family="Pretendard, sans-serif" font-size="48" font-weight="800">
    GitHub Vault Sync
  </text>
  <text x="132" y="106" fill="#475569" font-family="Pretendard, sans-serif" font-size="24" font-weight="500">
    Sync Obsidian notes across desktop and mobile through GitHub
  </text>
  <text x="160" y="162" fill="#334155" font-family="Pretendard, sans-serif" font-size="24" font-weight="700">
    Obsidian workspace
  </text>
  <text x="160" y="238" fill="#0F172A" font-family="Pretendard, sans-serif" font-size="36" font-weight="800">
    Write anywhere. Sync safely.
  </text>
  <text x="160" y="618" fill="#475569" font-family="Pretendard, sans-serif" font-size="22" font-weight="500">
    GitHub API based sync · mobile-friendly · focus-loss + interval auto sync
  </text>
</svg>
